<?xml version="1.0" standalone="no"?>
<!DOCTYPE svg PUBLIC "-//W3C//DTD SVG 20010904//EN"
 "http://www.w3.org/TR/2001/REC-SVG-20010904/DTD/svg10.dtd">
<svg version="1.0" xmlns="http://www.w3.org/2000/svg"
 width="603.000000pt" height="603.000000pt" viewBox="0 0 603.000000 603.000000"
 preserveAspectRatio="xMidYMid meet">
<metadata>
Created by potrace 1.14, written by Peter Selinger 2001-2017
</metadata>
<g transform="translate(0.000000,603.000000) scale(0.100000,-0.100000)"
fill="#000000" stroke="none">
<path d="M96 5988 c6 -21 6 -21 -10 -5 -21 21 -30 22 -22 2 5 -13 2 -13 -19 1
-13 9 -29 13 -35 9 -7 -4 -10 -919 -10 -2979 l0 -2974 22 -5 c14 -4 27 0 35
11 8 9 12 11 8 4 -6 -12 3 -16 43 -14 15 1 20 -3 15 -11 -5 -9 -3 -9 8 0 15
12 86 12 106 0 9 -6 11 -3 6 9 -5 14 -3 15 15 5 19 -10 22 -9 23 6 0 14 2 13
10 -5 5 -13 14 -20 19 -17 8 5 8 11 1 19 -8 9 -7 13 4 13 7 0 14 -3 13 -6 -2
-17 4 -20 28 -10 24 8 25 8 14 -6 -11 -13 -10 -14 4 -9 9 3 16 10 16 16 0 5 6
6 13 1 23 -15 121 -10 135 7 8 8 11 9 7 3 -6 -13 3 -17 43 -15 15 1 20 -3 15
-11 -5 -9 -3 -9 8 -1 8 6 28 10 44 10 17 -1 36 5 43 14 8 8 11 9 7 3 -6 -13 3
-17 43 -15 15 1 20 -3 15 -11 -5 -9 -3 -9 8 0 15 12 86 12 106 0 9 -6 11 -3 6
9 -5 14 -3 15 15 5 19 -10 22 -9 23 6 0 14 2 13 10 -5 5 -13 14 -20 19 -17 8
5 8 11 1 19 -8 9 -7 13 4 13 7 0 14 -3 13 -6 -2 -17 4 -20 28 -10 24 8 25 8
14 -6 -11 -13 -10 -14 4 -9 9 3 16 10 16 16 0 5 6 6 13 1 23 -15 121 -10 135
7 8 8 11 9 7 3 -6 -13 3 -17 43 -15 15 1 20 -3 15 -11 -5 -9 -3 -9 8 0 15 12
86 12 106 0 9 -6 11 -3 6 9 -5 14 -3 15 15 5 19 -10 22 -9 23 6 0 14 2 13 10
-5 5 -13 14 -20 19 -17 8 5 8 11 1 19 -8 9 -7 13 4 13 7 0 14 -3 13 -6 -2 -17
4 -20 28 -10 24 8 25 8 14 -6 -11 -13 -10 -14 4 -9 9 3 16 10 16 16 0 5 5 6
10 3 6 -4 7 -12 3 -18 -5 -9 -3 -9 8 -1 16 12 128 13 146 1 9 -6 11 -3 6 9 -5
14 -3 15 15 5 19 -10 22 -9 23 6 0 14 2 13 10 -5 5 -13 14 -20 19 -17 8 5 8
11 1 19 -8 9 -7 13 4 13 7 0 14 -3 13 -6 -2 -17 4 -20 28 -10 24 8 25 8 14 -6
-11 -13 -10 -14 4 -9 9 3 16 10 16 16 0 5 6 6 13 1 6 -4 31 -8 54 -8 23 0 45
-4 48 -7 9 -9 35 2 35 14 0 5 -5 6 -12 2 -7 -5 -8 -3 -3 6 6 10 13 8 28 -11
11 -13 18 -17 15 -8 -4 9 -1 16 8 16 7 0 11 -3 9 -7 -3 -6 56 -5 63 0 7 7 29
5 46 -3 11 -5 16 -5 13 0 -3 5 5 9 18 9 13 0 22 -3 20 -6 -9 -14 101 -4 113
10 8 8 11 9 7 3 -6 -13 3 -17 43 -15 15 1 20 -3 15 -11 -5 -9 -3 -9 8 0 15 12
86 12 106 0 9 -6 11 -3 6 9 -5 14 -3 15 15 5 19 -10 22 -9 23 6 0 14 2 13 10
-5 5 -13 14 -20 19 -17 8 5 8 11 1 19 -8 9 -7 13 4 13 7 0 14 -3 13 -6 -2 -17
4 -20 28 -10 24 8 25 8 14 -6 -11 -13 -10 -14 4 -9 9 3 16 10 16 16 0 5 6 6
13 1 23 -15 121 -10 135 7 8 8 11 9 7 3 -6 -13 3 -17 43 -15 15 1 20 -3 15
-11 -5 -9 -4 -9 8 0 15 12 43 12 55 1 8 -9 34 2 34 14 0 5 -5 6 -12 2 -7 -5
-8 -3 -3 6 6 10 13 8 28 -11 11 -13 18 -17 15 -8 -4 9 -1 16 8 16 7 0 11 -3 9
-7 -3 -6 56 -5 63 0 7 7 29 5 46 -3 11 -5 16 -5 13 0 -3 5 5 9 18 9 13 0 22
-3 20 -6 -2 -3 24 -5 58 -4 34 0 68 -4 75 -9 9 -7 11 -5 6 8 -6 15 -4 16 14 6
19 -10 22 -9 23 6 0 14 2 13 10 -5 5 -13 14 -20 19 -17 8 5 8 11 1 19 -8 9 -7
13 4 13 7 0 14 -3 13 -6 -2 -17 4 -20 28 -10 24 8 25 8 14 -6 -11 -13 -10 -14
4 -9 9 3 16 10 16 16 0 5 5 6 10 3 6 -4 7 -12 3 -18 -5 -9 -3 -9 8 -1 16 12
128 13 146 1 9 -6 11 -3 6 9 -5 14 -3 15 15 5 19 -10 22 -9 23 6 0 14 2 13 10
-5 5 -13 14 -20 19 -17 8 5 8 11 1 19 -8 9 -7 13 4 13 7 0 14 -3 13 -6 -2 -17
4 -20 28 -10 24 8 25 8 14 -6 -11 -13 -10 -14 4 -9 9 3 16 10 16 16 0 5 5 6
10 3 6 -4 7 -12 3 -18 -5 -9 -3 -9 8 -2 8 6 37 11 64 10 33 0 54 5 63 15 8 8
11 9 7 3 -6 -13 3 -17 43 -15 15 1 20 -3 15 -11 -5 -9 -3 -9 8 0 15 12 86 12
106 0 9 -6 11 -3 6 9 -5 14 -3 15 15 5 19 -10 22 -9 23 6 0 14 2 13 10 -5 5
-13 14 -20 19 -17 8 5 8 11 1 19 -8 9 -7 13 4 13 7 0 14 -3 13 -6 -2 -17 4
-20 28 -10 24 8 25 8 14 -6 -11 -13 -10 -14 4 -9 9 3 16 10 16 16 0 5 6 6 13
1 23 -15 121 -10 135 7 8 8 11 9 7 3 -6 -13 3 -17 43 -15 15 1 20 -3 15 -11
-5 -9 -3 -9 8 -1 8 6 28 10 44 10 17 -1 36 5 43 14 8 8 11 9 7 3 -6 -13 3 -17
43 -15 15 1 20 -3 15 -11 -5 -9 -3 -9 8 0 15 12 86 12 106 0 9 -6 11 -3 6 9
-5 14 -3 15 15 5 19 -10 22 -9 23 6 0 14 2 13 10 -5 5 -13 14 -20 19 -17 8 5
8 11 1 19 -8 9 -7 13 4 13 7 0 14 -3 13 -6 -2 -17 4 -20 28 -10 24 8 25 8 14
-6 -11 -13 -10 -14 4 -9 9 3 16 10 16 16 0 5 6 6 13 1 23 -15 121 -10 135 7 8
8 11 9 7 3 -6 -13 3 -17 43 -15 15 1 20 -3 15 -11 -5 -9 -3 -9 8 -1 8 6 28 10
44 10 17 -1 36 5 43 14 8 8 11 9 7 3 -6 -13 3 -17 43 -15 15 1 20 -3 15 -11
-5 -9 -3 -9 8 0 15 12 86 12 106 0 9 -6 11 -3 6 9 -5 14 -3 15 15 5 19 -10 22
-9 23 6 0 14 2 13 10 -5 5 -13 14 -20 19 -17 8 5 8 11 1 19 -8 9 -7 13 4 13 7
0 14 -3 13 -6 -2 -17 4 -20 28 -10 24 8 25 8 14 -6 -11 -13 -10 -14 4 -9 9 3
16 10 16 16 0 5 6 6 13 1 23 -15 121 -10 135 7 8 8 11 9 7 2 -6 -12 3 -16 43
-14 15 1 20 -3 15 -11 -5 -9 -3 -9 8 -1 8 6 28 10 44 10 17 -1 36 5 43 14 8 8
11 9 7 3 -6 -13 3 -17 43 -15 15 1 20 -3 15 -11 -5 -9 -3 -9 8 0 15 12 86 12
106 0 9 -6 11 -3 7 8 -5 11 -2 14 10 9 15 -6 16 240 16 2968 0 1636 -3 2978
-7 2981 -3 4 -12 -1 -20 -11 -13 -15 -14 -15 -9 0 3 12 -1 16 -15 15 -11 -1
-18 -6 -15 -12 2 -7 -2 -12 -9 -12 -7 0 -11 7 -8 15 5 12 2 12 -15 3 -15 -8
-22 -8 -22 -1 0 6 -10 8 -26 4 -21 -5 -25 -4 -20 7 4 8 1 6 -7 -3 -11 -14 -16
-15 -27 -5 -10 10 -12 8 -6 -7 5 -15 4 -17 -8 -7 -7 6 -22 9 -32 5 -14 -4 -16
-3 -5 4 10 7 3 9 -23 9 -23 -1 -35 -6 -32 -12 2 -7 -2 -12 -9 -12 -7 0 -11 7
-8 15 5 12 2 12 -15 3 -15 -8 -22 -8 -22 -1 0 6 -10 8 -26 4 -19 -5 -25 -4
-20 5 4 6 2 11 -4 11 -7 0 -9 -8 -4 -22 6 -21 6 -21 -10 -5 -22 21 -30 22 -22
1 5 -14 4 -15 -8 -5 -7 6 -22 9 -32 5 -14 -4 -16 -3 -5 4 10 7 3 9 -23 9 -23
-1 -35 -6 -32 -12 2 -7 -2 -12 -9 -12 -7 0 -11 7 -8 15 5 12 2 12 -15 3 -15
-8 -22 -8 -22 -1 0 6 -10 8 -26 4 -21 -5 -25 -4 -20 7 4 8 1 6 -7 -3 -11 -14
-16 -15 -27 -5 -10 10 -12 8 -6 -7 5 -15 4 -17 -8 -7 -7 6 -22 9 -32 5 -14 -4
-16 -3 -5 4 10 7 3 9 -23 9 -23 -1 -35 -6 -32 -12 2 -7 -2 -12 -9 -12 -7 0
-11 7 -8 15 5 12 2 12 -15 3 -15 -8 -22 -8 -22 -1 0 6 -10 8 -26 4 -19 -5 -25
-4 -20 5 4 6 2 11 -4 11 -7 0 -9 -8 -4 -22 6 -21 6 -21 -10 -5 -22 21 -30 22
-22 1 5 -14 4 -15 -8 -5 -7 6 -22 9 -32 5 -14 -4 -16 -3 -5 4 10 7 3 9 -23 9
-23 -1 -35 -6 -32 -12 2 -7 -2 -12 -9 -12 -7 0 -11 7 -8 15 5 12 2 12 -15 3
-15 -8 -22 -8 -22 -1 0 6 -10 8 -26 4 -21 -5 -25 -4 -20 7 4 8 1 6 -7 -3 -11
-14 -16 -15 -27 -5 -10 10 -12 8 -6 -7 5 -15 4 -17 -8 -7 -7 6 -22 9 -32 5
-14 -4 -16 -3 -5 4 10 7 3 9 -23 9 -23 -1 -35 -6 -32 -12 2 -7 -2 -12 -9 -12
-7 0 -11 7 -8 15 5 12 2 12 -15 3 -15 -8 -22 -8 -22 -1 0 6 -10 8 -26 4 -19
-5 -25 -4 -20 5 4 6 2 11 -4 11 -7 0 -9 -8 -4 -22 6 -21 6 -21 -10 -5 -22 21
-30 22 -22 1 5 -14 4 -15 -8 -5 -7 6 -22 9 -32 5 -14 -4 -16 -3 -5 4 10 7 3 9
-23 9 -23 -1 -35 -6 -32 -12 2 -7 -2 -12 -9 -12 -7 0 -11 7 -8 15 5 12 2 12
-15 3 -15 -8 -22 -8 -22 -1 0 6 -10 8 -26 4 -21 -5 -25 -4 -20 7 4 8 1 6 -7
-3 -11 -14 -16 -15 -27 -5 -10 10 -12 8 -6 -7 5 -15 4 -17 -8 -7 -7 6 -22 9
-32 5 -14 -4 -16 -3 -5 4 10 7 3 9 -23 9 -23 -1 -35 -6 -32 -12 2 -7 -2 -12
-9 -12 -7 0 -11 7 -8 15 5 12 2 12 -15 3 -15 -8 -22 -8 -22 -1 0 6 -10 8 -26
4 -19 -5 -25 -4 -20 5 4 6 2 11 -4 11 -7 0 -9 -8 -4 -22 6 -21 6 -21 -10 -5
-22 21 -30 22 -22 1 5 -14 4 -15 -8 -5 -7 6 -22 9 -32 5 -14 -4 -16 -3 -5 4
10 7 3 9 -23 9 -23 -1 -35 -6 -32 -12 2 -7 -2 -12 -9 -12 -7 0 -11 7 -8 15 5
12 2 12 -15 3 -15 -8 -22 -8 -22 -1 0 6 -10 8 -26 4 -21 -5 -25 -4 -20 7 4 8
1 6 -7 -3 -11 -14 -16 -15 -27 -5 -10 10 -12 8 -6 -7 5 -15 4 -17 -8 -7 -7 6
-22 9 -32 5 -14 -4 -16 -3 -5 4 10 7 3 9 -23 9 -23 -1 -35 -6 -32 -12 2 -7 -2
-12 -9 -12 -7 0 -11 7 -8 15 5 12 2 12 -15 3 -15 -8 -22 -8 -22 -1 0 6 -10 8
-26 4 -19 -5 -25 -4 -20 5 4 6 2 11 -4 11 -7 0 -9 -8 -4 -22 6 -21 6 -21 -10
-5 -22 21 -30 22 -22 1 5 -14 4 -15 -8 -5 -7 6 -22 9 -32 5 -14 -4 -16 -3 -5
4 10 7 3 9 -23 9 -23 -1 -35 -6 -32 -12 2 -7 -2 -12 -9 -12 -7 0 -11 7 -8 15
5 12 2 12 -15 3 -15 -8 -22 -8 -22 -1 0 6 -10 8 -26 4 -21 -5 -25 -4 -20 7 4
8 1 6 -7 -3 -11 -14 -16 -15 -27 -5 -10 10 -12 8 -6 -7 5 -15 4 -17 -8 -7 -7
6 -22 9 -32 5 -14 -4 -16 -3 -5 4 10 7 3 9 -23 9 -23 -1 -35 -6 -32 -12 2 -7
-2 -12 -9 -12 -7 0 -11 7 -8 15 5 12 2 12 -15 3 -15 -8 -22 -8 -22 -1 0 6 -10
8 -26 4 -19 -5 -25 -4 -20 5 4 6 2 11 -4 11 -7 0 -9 -8 -4 -22 6 -21 6 -21
-10 -5 -22 21 -30 22 -22 1 5 -14 4 -15 -8 -5 -7 6 -22 9 -32 5 -14 -4 -16 -3
-5 4 10 7 3 9 -23 9 -23 -1 -35 -6 -32 -12 2 -7 -2 -12 -9 -12 -7 0 -11 7 -8
15 5 12 2 12 -15 3 -15 -8 -22 -8 -22 -1 0 6 -10 8 -26 4 -21 -5 -25 -4 -20 7
4 8 1 6 -7 -3 -11 -14 -16 -15 -27 -5 -10 10 -12 8 -6 -7 5 -15 4 -17 -8 -7
-7 6 -22 9 -32 5 -14 -4 -16 -3 -5 4 10 7 3 9 -23 9 -23 -1 -35 -6 -32 -12 2
-7 -2 -12 -9 -12 -7 0 -11 7 -8 15 5 12 2 12 -15 3 -15 -8 -22 -8 -22 -1 0 6
-10 8 -26 4 -19 -5 -25 -4 -20 5 4 6 2 11 -4 11 -7 0 -9 -8 -4 -22 6 -21 6
-21 -10 -5 -22 21 -30 22 -22 1 5 -14 4 -15 -8 -5 -7 6 -22 9 -32 5 -14 -4
-16 -3 -5 4 10 7 3 9 -23 9 -23 -1 -35 -6 -32 -12 2 -7 -2 -12 -9 -12 -7 0
-11 7 -8 15 5 12 2 12 -15 3 -15 -8 -22 -8 -22 -1 0 6 -10 8 -26 4 -21 -5 -25
-4 -20 7 4 8 1 6 -7 -3 -11 -14 -16 -15 -27 -5 -10 10 -12 8 -6 -7 5 -15 4
-17 -8 -7 -7 6 -22 9 -32 5 -14 -4 -16 -3 -5 4 10 7 3 9 -23 9 -23 -1 -35 -6
-32 -12 2 -7 -2 -12 -9 -12 -7 0 -11 7 -8 15 5 12 2 12 -15 3 -15 -8 -22 -8
-22 -1 0 6 -10 8 -26 4 -19 -5 -25 -4 -20 5 4 6 2 11 -4 11 -7 0 -9 -8 -4 -22
6 -21 6 -21 -10 -5 -22 21 -30 22 -22 1 5 -14 4 -15 -8 -5 -7 6 -22 9 -32 5
-14 -4 -16 -3 -5 4 10 7 3 9 -23 9 -23 -1 -35 -6 -32 -12 2 -7 -2 -12 -9 -12
-7 0 -11 7 -8 15 5 12 2 12 -15 3 -15 -8 -22 -8 -22 -1 0 6 -10 8 -26 4 -21
-5 -25 -4 -20 7 4 8 1 6 -7 -3 -11 -14 -16 -15 -27 -5 -10 10 -12 8 -6 -7 5
-15 4 -17 -8 -7 -7 6 -22 9 -32 5 -14 -4 -16 -3 -5 4 10 7 3 9 -23 9 -23 -1
-35 -6 -32 -12 2 -7 -2 -12 -9 -12 -7 0 -11 7 -8 15 5 12 2 12 -15 3 -15 -8
-22 -8 -22 -1 0 6 -10 8 -26 4 -19 -5 -25 -4 -20 5 4 6 2 11 -4 11 -7 0 -9 -8
-4 -22 6 -21 6 -21 -10 -5 -22 21 -30 22 -22 1 5 -14 4 -15 -8 -5 -7 6 -22 9
-32 5 -14 -4 -16 -3 -5 4 10 7 3 9 -23 9 -23 -1 -35 -6 -32 -12 2 -7 -2 -12
-9 -12 -7 0 -11 7 -8 15 5 12 2 12 -15 3 -15 -8 -22 -8 -22 -1 0 6 -10 8 -26
4 -21 -5 -25 -4 -20 7 4 8 1 6 -7 -3 -11 -14 -16 -15 -27 -5 -10 10 -12 8 -6
-7 5 -15 4 -17 -8 -7 -7 6 -22 9 -32 5 -14 -4 -16 -3 -5 4 10 7 3 9 -23 9 -23
-1 -35 -6 -32 -12 2 -7 -2 -12 -9 -12 -7 0 -11 7 -8 15 5 12 2 12 -15 3 -15
-8 -22 -8 -22 -1 0 6 -10 8 -26 4 -19 -5 -25 -4 -20 5 4 6 2 11 -4 11 -7 0 -9
-8 -4 -22 6 -21 6 -21 -10 -5 -22 21 -30 22 -22 1 5 -14 4 -15 -8 -5 -7 6 -22
9 -32 5 -14 -4 -16 -3 -5 4 10 7 3 9 -23 9 -23 -1 -35 -6 -32 -12 2 -7 -2 -12
-9 -12 -7 0 -11 7 -8 15 5 12 2 12 -15 3 -15 -8 -22 -8 -22 -1 0 6 -10 8 -26
4 -21 -5 -25 -4 -20 7 4 8 1 6 -7 -3 -11 -14 -16 -15 -27 -5 -10 10 -12 8 -6
-7 5 -15 4 -17 -8 -7 -7 6 -22 9 -32 5 -14 -4 -16 -3 -5 4 10 7 3 9 -23 9 -23
-1 -35 -6 -32 -12 2 -7 -2 -12 -9 -12 -7 0 -11 7 -8 15 5 12 2 12 -15 3 -15
-8 -22 -8 -22 -1 0 6 -10 8 -26 4 -19 -5 -25 -4 -20 5 4 6 2 11 -4 11 -7 0 -9
-8 -4 -22 6 -21 6 -21 -10 -5 -22 21 -30 22 -22 1 5 -14 4 -15 -8 -5 -7 6 -22
9 -32 5 -14 -4 -16 -3 -5 4 10 7 3 9 -23 9 -23 -1 -35 -6 -32 -12 2 -7 -2 -12
-9 -12 -7 0 -11 7 -8 15 5 12 2 12 -15 3 -15 -8 -22 -8 -22 -1 0 6 -10 8 -26
4 -21 -5 -25 -4 -20 7 4 8 1 6 -7 -3 -11 -14 -16 -15 -27 -5 -10 10 -12 8 -6
-7 5 -15 4 -17 -8 -7 -7 6 -22 9 -32 5 -14 -4 -16 -3 -5 4 10 7 3 9 -23 9 -23
-1 -35 -6 -32 -12 2 -7 -2 -12 -9 -12 -7 0 -11 7 -8 15 5 12 2 12 -15 3 -15
-8 -22 -8 -22 -1 0 6 -10 8 -26 4 -19 -5 -25 -4 -20 5 4 6 2 11 -4 11 -7 0 -9
-8 -4 -22 6 -21 6 -21 -10 -5 -22 21 -30 22 -22 1 5 -14 4 -15 -8 -5 -7 6 -22
9 -32 5 -14 -4 -16 -3 -5 4 10 7 3 9 -23 9 -23 -1 -35 -6 -32 -12 2 -7 -2 -12
-9 -12 -7 0 -11 7 -8 15 5 12 2 12 -15 3 -15 -8 -22 -8 -22 -1 0 6 -10 8 -26
4 -19 -5 -25 -4 -20 5 4 6 2 11 -4 11 -7 0 -9 -8 -4 -22z m44 -14 c0 -8 -19
-13 -24 -6 -3 5 1 9 9 9 8 0 15 -2 15 -3z m240 0 c0 -8 -19 -13 -24 -6 -3 5 1
9 9 9 8 0 15 -2 15 -3z m237 0 c-3 -3 -12 -4 -19 -1 -8 3 -5 6 6 6 11 1 17 -2
13 -5z m243 0 c0 -8 -19 -13 -24 -6 -3 5 1 9 9 9 8 0 15 -2 15 -3z m237 0 c-3
-3 -12 -4 -19 -1 -8 3 -5 6 6 6 11 1 17 -2 13 -5z m243 0 c0 -8 -19 -13 -24
-6 -3 5 1 9 9 9 8 0 15 -2 15 -3z m237 0 c-3 -3 -12 -4 -19 -1 -8 3 -5 6 6 6
11 1 17 -2 13 -5z m243 0 c0 -8 -19 -13 -24 -6 -3 5 1 9 9 9 8 0 15 -2 15 -3z
m237 0 c-3 -3 -12 -4 -19 -1 -8 3 -5 6 6 6 11 1 17 -2 13 -5z m243 0 c0 -8
-19 -13 -24 -6 -3 5 1 9 9 9 8 0 15 -2 15 -3z m237 0 c-3 -3 -12 -4 -19 -1 -8
3 -5 6 6 6 11 1 17 -2 13 -5z m243 0 c0 -8 -19 -13 -24 -6 -3 5 1 9 9 9 8 0
15 -2 15 -3z m237 0 c-3 -3 -12 -4 -19 -1 -8 3 -5 6 6 6 11 1 17 -2 13 -5z
m243 0 c0 -8 -19 -13 -24 -6 -3 5 1 9 9 9 8 0 15 -2 15 -3z m237 0 c-3 -3 -12
-4 -19 -1 -8 3 -5 6 6 6 11 1 17 -2 13 -5z m243 0 c0 -8 -19 -13 -24 -6 -3 5
1 9 9 9 8 0 15 -2 15 -3z m237 0 c-3 -3 -12 -4 -19 -1 -8 3 -5 6 6 6 11 1 17
-2 13 -5z m243 0 c0 -8 -19 -13 -24 -6 -3 5 1 9 9 9 8 0 15 -2 15 -3z m237 0
c-3 -3 -12 -4 -19 -1 -8 3 -5 6 6 6 11 1 17 -2 13 -5z m243 0 c0 -8 -19 -13
-24 -6 -3 5 1 9 9 9 8 0 15 -2 15 -3z m237 0 c-3 -3 -12 -4 -19 -1 -8 3 -5 6
6 6 11 1 17 -2 13 -5z m243 0 c0 -8 -19 -13 -24 -6 -3 5 1 9 9 9 8 0 15 -2 15
-3z m237 0 c-3 -3 -12 -4 -19 -1 -8 3 -5 6 6 6 11 1 17 -2 13 -5z m243 0 c0
-8 -19 -13 -24 -6 -3 5 1 9 9 9 8 0 15 -2 15 -3z m237 0 c-3 -3 -12 -4 -19 -1
-8 3 -5 6 6 6 11 1 17 -2 13 -5z m-5793 -5922 c3 -5 -1 -9 -9 -9 -8 0 -12 4
-9 9 3 4 7 8 9 8 2 0 6 -4 9 -8z m80 -4 c-3 -4 -11 -5 -19 -1 -21 7 -19 12 4
10 11 0 18 -5 15 -9z m46 6 c0 -8 -19 -13 -24 -6 -3 5 1 9 9 9 8 0 15 -2 15
-3z m260 -4 c0 -5 -2 -10 -4 -10 -3 0 -8 5 -11 10 -3 6 -1 10 4 10 6 0 11 -4
11 -10z m94 2 c3 -5 -1 -9 -9 -9 -8 0 -12 4 -9 9 3 4 7 8 9 8 2 0 6 -4 9 -8z
m66 -2 c0 -5 -2 -10 -4 -10 -3 0 -8 5 -11 10 -3 6 -1 10 4 10 6 0 11 -4 11
-10z m94 2 c3 -5 -1 -9 -9 -9 -8 0 -12 4 -9 9 3 4 7 8 9 8 2 0 6 -4 9 -8z m80
-4 c-3 -4 -11 -5 -19 -1 -21 7 -19 12 4 10 11 0 18 -5 15 -9z m46 6 c0 -8 -19
-13 -24 -6 -3 5 1 9 9 9 8 0 15 -2 15 -3z m260 -4 c0 -5 -2 -10 -4 -10 -3 0
-8 5 -11 10 -3 6 -1 10 4 10 6 0 11 -4 11 -10z m94 2 c3 -5 -1 -9 -9 -9 -8 0
-12 4 -9 9 3 4 7 8 9 8 2 0 6 -4 9 -8z m80 -4 c-3 -4 -11 -5 -19 -1 -21 7 -19
12 4 10 11 0 18 -5 15 -9z m46 6 c0 -8 -19 -13 -24 -6 -3 5 1 9 9 9 8 0 15 -2
15 -3z m274 -6 c-3 -4 -11 -5 -19 -1 -21 7 -19 12 4 10 11 0 18 -5 15 -9z m46
6 c0 -8 -19 -13 -24 -6 -3 5 1 9 9 9 8 0 15 -2 15 -3z m284 -10 c3 -8 2 -12
-4 -9 -6 3 -10 10 -10 16 0 14 7 11 14 -7z m390 8 c3 -5 -1 -9 -9 -9 -8 0 -12
4 -9 9 7 10 11 10 18 0z m80 -4 c-3 -4 -11 -5 -19 -1 -21 7 -19 12 4 10 11 0
18 -5 15 -9z m46 6 c0 -8 -19 -13 -24 -6 -3 5 1 9 9 9 8 0 15 -2 15 -3z m260
-4 c0 -5 -2 -10 -4 -10 -3 0 -8 5 -11 10 -3 6 -1 10 4 10 6 0 11 -4 11 -10z
m94 2 c3 -5 -1 -9 -9 -9 -8 0 -12 4 -9 9 3 4 7 8 9 8 2 0 6 -4 9 -8z m90 -8
c3 -8 2 -12 -4 -9 -6 3 -10 10 -10 16 0 14 7 11 14 -7z m316 10 c0 -8 -19 -13
-24 -6 -3 5 1 9 9 9 8 0 15 -2 15 -3z m40 0 c0 -8 -19 -13 -24 -6 -3 5 1 9 9
9 8 0 15 -2 15 -3z m274 -6 c-3 -4 -11 -5 -19 -1 -21 7 -19 12 4 10 11 0 18
-5 15 -9z m46 6 c0 -8 -19 -13 -24 -6 -3 5 1 9 9 9 8 0 15 -2 15 -3z m260 -4
c0 -5 -2 -10 -4 -10 -3 0 -8 5 -11 10 -3 6 -1 10 4 10 6 0 11 -4 11 -10z m94
2 c3 -5 -1 -9 -9 -9 -8 0 -12 4 -9 9 3 4 7 8 9 8 2 0 6 -4 9 -8z m80 -4 c-3
-4 -11 -5 -19 -1 -21 7 -19 12 4 10 11 0 18 -5 15 -9z m46 6 c0 -8 -19 -13
-24 -6 -3 5 1 9 9 9 8 0 15 -2 15 -3z m260 -4 c0 -5 -2 -10 -4 -10 -3 0 -8 5
-11 10 -3 6 -1 10 4 10 6 0 11 -4 11 -10z m94 2 c3 -5 -1 -9 -9 -9 -8 0 -12 4
-9 9 3 4 7 8 9 8 2 0 6 -4 9 -8z m66 -2 c0 -5 -2 -10 -4 -10 -3 0 -8 5 -11 10
-3 6 -1 10 4 10 6 0 11 -4 11 -10z m94 2 c3 -5 -1 -9 -9 -9 -8 0 -12 4 -9 9 3
4 7 8 9 8 2 0 6 -4 9 -8z m80 -4 c-3 -4 -11 -5 -19 -1 -21 7 -19 12 4 10 11 0
18 -5 15 -9z m46 6 c0 -8 -19 -13 -24 -6 -3 5 1 9 9 9 8 0 15 -2 15 -3z m260
-4 c0 -5 -2 -10 -4 -10 -3 0 -8 5 -11 10 -3 6 -1 10 4 10 6 0 11 -4 11 -10z
m94 2 c3 -5 -1 -9 -9 -9 -8 0 -12 4 -9 9 3 4 7 8 9 8 2 0 6 -4 9 -8z m66 -2
c0 -5 -2 -10 -4 -10 -3 0 -8 5 -11 10 -3 6 -1 10 4 10 6 0 11 -4 11 -10z m94
2 c3 -5 -1 -9 -9 -9 -8 0 -12 4 -9 9 3 4 7 8 9 8 2 0 6 -4 9 -8z m80 -4 c-3
-4 -11 -5 -19 -1 -21 7 -19 12 4 10 11 0 18 -5 15 -9z m46 6 c0 -8 -19 -13
-24 -6 -3 5 1 9 9 9 8 0 15 -2 15 -3z m260 -4 c0 -5 -2 -10 -4 -10 -3 0 -8 5
-11 10 -3 6 -1 10 4 10 6 0 11 -4 11 -10z m94 2 c3 -5 -1 -9 -9 -9 -8 0 -12 4
-9 9 3 4 7 8 9 8 2 0 6 -4 9 -8z m66 -2 c0 -5 -2 -10 -4 -10 -3 0 -8 5 -11 10
-3 6 -1 10 4 10 6 0 11 -4 11 -10z m94 2 c3 -5 -1 -9 -9 -9 -8 0 -12 4 -9 9 3
4 7 8 9 8 2 0 6 -4 9 -8z m80 -4 c-3 -4 -11 -5 -19 -1 -21 7 -19 12 4 10 11 0
18 -5 15 -9z m46 6 c0 -8 -19 -13 -24 -6 -3 5 1 9 9 9 8 0 15 -2 15 -3z"/>
<path d="M2096 28 c3 -5 10 -6 15 -3 13 9 11 12 -6 12 -8 0 -12 -4 -9 -9z"/>
<path d="M3056 28 c3 -5 10 -6 15 -3 13 9 11 12 -6 12 -8 0 -12 -4 -9 -9z"/>
</g>
</svg>
